<svg width="201" height="45" viewBox="0 0 201 45" fill="none" xmlns="http://www.w3.org/2000/svg">
<g clip-path="url(#clip0_615_3)">
<path d="M25.606 4.5918L45.625 42.2449H5.58667L25.606 4.5918Z" stroke="white" stroke-width="3"/>
<path d="M25.606 0L51.2118 45H0L25.606 0Z" stroke="white"/>
<path d="M25.7611 22.9636C29.3312 23.0378 32.5056 23.9869 34.7504 25.4188C37.0084 26.8591 38.2145 28.7021 38.1751 30.567C38.1357 32.432 36.8527 34.2233 34.5358 35.5686C32.2325 36.9059 29.0207 37.7224 25.4506 37.6482C21.8805 37.574 18.706 36.6251 16.4613 35.1931C14.2032 33.7526 12.9971 31.9098 13.0366 30.0448C13.076 28.1798 14.3589 26.3887 16.6758 25.0434C18.9792 23.7059 22.1909 22.8895 25.7611 22.9636Z" stroke="white" stroke-width="3"/>
</g>
<path d="M65.1787 27.5875C65.283 27.5875 65.3873 27.4846 65.4916 27.2789C65.5959 27.0732 65.648 26.7352 65.648 26.265V15.6854C65.648 15.2152 65.5959 14.8846 65.4916 14.6936C65.3873 14.4879 65.283 14.3777 65.1787 14.363H72.1957C73.5216 14.363 74.624 14.4879 75.503 14.7377C76.3969 14.9875 77.112 15.3328 77.6483 15.7736C78.1996 16.2144 78.6167 16.7213 78.8998 17.2944C79.1828 17.8528 79.369 18.4479 79.4584 19.0797C79.5627 19.7115 79.6149 20.3507 79.6149 20.9973C79.6149 21.585 79.5627 22.1948 79.4584 22.8266C79.369 23.4438 79.1754 24.0389 78.8774 24.6119C78.5943 25.1703 78.1772 25.6773 77.626 26.1328C77.0897 26.5736 76.3745 26.9262 75.4807 27.1907C74.6017 27.4552 73.5067 27.5875 72.1957 27.5875H65.1787ZM69.0447 25.8022H71.7934C73.7004 25.8022 75.0635 25.4348 75.8829 24.7001C76.7023 23.9654 77.112 22.7826 77.112 21.1515V20.7548C77.112 19.6087 76.9481 18.705 76.6204 18.0438C76.2926 17.3679 75.7414 16.8903 74.9667 16.6111C74.192 16.3172 73.1342 16.1703 71.7934 16.1703H69.0447C68.6127 16.1703 68.352 16.1997 68.2626 16.2585C68.1881 16.3026 68.1509 16.4789 68.1509 16.7875V25.1409C68.1509 25.4642 68.1881 25.6552 68.2626 25.714C68.352 25.7728 68.6127 25.8022 69.0447 25.8022ZM83.0107 15.1564C82.5786 15.1564 82.2434 15.0389 82.0051 14.8038C81.7667 14.554 81.6475 14.2675 81.6475 13.9442C81.6475 13.6062 81.7592 13.3197 81.9827 13.0846C82.2211 12.8495 82.5637 12.7319 83.0107 12.7319C83.4576 12.7319 83.7928 12.8495 84.0163 13.0846C84.2547 13.3197 84.3738 13.6062 84.3738 13.9442C84.3738 14.2675 84.2547 14.554 84.0163 14.8038C83.7779 15.0389 83.4427 15.1564 83.0107 15.1564ZM81.6475 27.5875C81.7518 27.5875 81.8486 27.4846 81.938 27.2789C82.0423 27.0732 82.0944 26.7352 82.0944 26.265V18.5948C82.0944 18.1246 82.0423 17.794 81.938 17.603C81.8486 17.3973 81.7518 17.287 81.6475 17.2724H84.3738V26.265C84.3738 26.7352 84.4185 27.0732 84.5079 27.2789C84.6122 27.4846 84.7165 27.5875 84.8208 27.5875H81.6475ZM92.185 32.9654C90.8889 32.9654 89.7567 32.8405 88.7883 32.5907C87.8199 32.3409 87.1272 32.0985 86.71 31.8634L87.157 29.8797V29.2405C87.3655 29.5491 87.6933 29.8724 88.1402 30.2103C88.5872 30.5483 89.1458 30.8348 89.8163 31.0699C90.4867 31.305 91.2465 31.4226 92.0957 31.4226C93.0938 31.4226 93.8313 31.2609 94.308 30.9377C94.7996 30.6144 95.1199 30.1662 95.2689 29.5932C95.4328 29.0201 95.5147 28.3662 95.5147 27.6315V26.816L95.5594 26.4193L95.5147 26.3752C95.2168 26.7426 94.7549 27.0732 94.1292 27.3671C93.5184 27.6609 92.7661 27.8079 91.8722 27.8079C90.4569 27.8079 89.3544 27.5728 88.5648 27.1026C87.7901 26.6324 87.2464 25.9932 86.9335 25.185C86.6355 24.3768 86.4866 23.4658 86.4866 22.4519C86.4866 21.4234 86.6355 20.505 86.9335 19.6968C87.2464 18.8887 87.7901 18.2495 88.5648 17.7793C89.3544 17.2944 90.4569 17.0519 91.8722 17.0519C92.7661 17.0519 93.511 17.1695 94.1069 17.4046C94.7028 17.6397 95.1721 17.9409 95.5147 18.3083L95.5594 18.2862L95.5147 17.8675V17.2724H98.2411C98.1368 17.287 98.0325 17.3973 97.9282 17.603C97.8388 17.8087 97.7941 18.154 97.7941 18.6389V27.0805C97.7941 29.2111 97.3323 30.7246 96.4086 31.6209C95.4998 32.5173 94.092 32.9654 92.185 32.9654ZM92.0286 26.243C92.9523 26.243 93.6674 26.1034 94.1739 25.8242C94.6805 25.5303 95.0306 25.1042 95.2242 24.5458C95.4179 23.9728 95.5147 23.2748 95.5147 22.4519C95.5147 21.6438 95.4105 20.9532 95.2019 20.3801C95.0082 19.807 94.6581 19.3662 94.1516 19.0577C93.6599 18.7491 92.9523 18.5948 92.0286 18.5948C90.7772 18.5948 89.9131 18.9475 89.4364 19.6528C88.9745 20.3581 88.7436 21.2985 88.7436 22.474C88.7436 23.6495 88.9745 24.5752 89.4364 25.2511C89.8982 25.9124 90.7623 26.243 92.0286 26.243ZM101.757 15.1564C101.325 15.1564 100.99 15.0389 100.751 14.8038C100.513 14.554 100.394 14.2675 100.394 13.9442C100.394 13.6062 100.506 13.3197 100.729 13.0846C100.967 12.8495 101.31 12.7319 101.757 12.7319C102.204 12.7319 102.539 12.8495 102.763 13.0846C103.001 13.3197 103.12 13.6062 103.12 13.9442C103.12 14.2675 103.001 14.554 102.763 14.8038C102.524 15.0389 102.189 15.1564 101.757 15.1564ZM100.394 27.5875C100.498 27.5875 100.595 27.4846 100.684 27.2789C100.789 27.0732 100.841 26.7352 100.841 26.265V18.5948C100.841 18.1246 100.789 17.794 100.684 17.603C100.595 17.3973 100.498 17.287 100.394 17.2724H103.12V26.265C103.12 26.7352 103.165 27.0732 103.254 27.2789C103.359 27.4846 103.463 27.5875 103.567 27.5875H100.394ZM109.836 27.8079C108.808 27.8079 108.064 27.5948 107.602 27.1687C107.14 26.7279 106.909 26.0152 106.909 25.0307V18.8152H104.898V17.2724C105.583 17.2724 106.119 17.1915 106.507 17.0299C106.894 16.8536 107.17 16.5524 107.334 16.1262C107.497 15.7001 107.579 15.105 107.579 14.3409H109.188V17.2724H113.457C113.352 17.4193 113.248 17.6397 113.144 17.9336C113.054 18.2128 113.01 18.5066 113.01 18.8152H109.188V24.7001C109.188 25.376 109.315 25.8022 109.568 25.9785C109.821 26.1548 110.142 26.243 110.529 26.243C111.08 26.243 111.579 26.0813 112.026 25.7581C112.473 25.4348 112.794 25.1189 112.987 24.8103V25.4936L113.211 26.7499C112.987 26.985 112.585 27.2201 112.004 27.4552C111.423 27.6903 110.7 27.8079 109.836 27.8079ZM118.978 27.8079C117.354 27.8079 116.215 27.5213 115.559 26.9483C114.904 26.3605 114.576 25.5744 114.576 24.5899C114.576 23.5613 114.971 22.7532 115.76 22.1654C116.55 21.5777 117.757 21.2838 119.38 21.2838C120.542 21.2838 121.474 21.4013 122.174 21.6364C122.874 21.8568 123.343 22.0479 123.582 22.2095C123.567 20.9017 123.313 19.976 122.822 19.4324C122.345 18.874 121.496 18.5948 120.274 18.5948C119.395 18.5948 118.606 18.6977 117.905 18.9034C117.22 19.0944 116.669 19.3075 116.252 19.5426C115.835 19.763 115.574 19.9246 115.47 20.0275V19.5866L115.246 17.9336C115.38 17.8748 115.671 17.7793 116.118 17.6471C116.565 17.5001 117.153 17.3679 117.883 17.2503C118.613 17.1181 119.47 17.0519 120.453 17.0519C122.33 17.0519 123.701 17.4487 124.565 18.2421C125.429 19.0209 125.861 20.2258 125.861 21.8568V26.265C125.861 26.6764 125.906 26.9777 125.995 27.1687C126.099 27.345 126.204 27.4846 126.308 27.5875H123.582V26.9262L123.626 26.5075L123.582 26.4854C123.09 26.9262 122.449 27.2568 121.66 27.4773C120.87 27.6977 119.976 27.8079 118.978 27.8079ZM119.716 26.243C120.922 26.243 121.868 26.074 122.554 25.736C123.239 25.3834 123.582 24.9426 123.582 24.4136C123.582 23.9728 123.284 23.5981 122.688 23.2895C122.107 22.9809 121.198 22.8266 119.961 22.8266C118.814 22.8266 118.002 22.9736 117.526 23.2675C117.064 23.5613 116.833 24.0022 116.833 24.5899C116.833 25.163 117.056 25.5817 117.503 25.8462C117.965 26.1107 118.703 26.243 119.716 26.243ZM128.554 27.5875C128.658 27.5875 128.762 27.4846 128.867 27.2789C128.971 27.0732 129.023 26.7352 129.023 26.265V15.6854C129.023 15.2152 128.971 14.8846 128.867 14.6936C128.762 14.4879 128.658 14.3777 128.554 14.363H131.995C131.891 14.363 131.787 14.4658 131.682 14.6715C131.578 14.8773 131.526 15.2226 131.526 15.7075V25.1189C131.526 25.4421 131.563 25.6405 131.638 25.714C131.727 25.7728 131.995 25.8022 132.442 25.8022H138.096C138.96 25.8022 139.653 25.7066 140.174 25.5156C140.711 25.3099 141.061 25.1115 141.225 24.9205L140.778 27.1246V27.5875H128.554ZM148.15 27.5875C148.255 27.5875 148.359 27.4846 148.463 27.2789C148.567 27.0732 148.62 26.7352 148.62 26.265V15.6854C148.62 15.2152 148.567 14.8846 148.463 14.6936C148.359 14.4879 148.255 14.3777 148.15 14.363H160.732V14.8038L161.179 16.9197C160.806 16.7581 160.151 16.5891 159.212 16.4128C158.273 16.2217 157.141 16.1262 155.815 16.1262H152.039C151.592 16.1262 151.324 16.163 151.234 16.2364C151.16 16.2952 151.122 16.4789 151.122 16.7875V19.3001C151.122 19.6234 151.16 19.8144 151.234 19.8732C151.324 19.9319 151.584 19.9613 152.016 19.9613H155.704C156.568 19.9613 157.26 19.9173 157.782 19.8291C158.318 19.7262 158.668 19.6234 158.832 19.5205C158.728 19.7997 158.624 20.1597 158.519 20.6005C158.43 21.0266 158.385 21.4013 158.385 21.7246H152.016C151.584 21.7246 151.324 21.754 151.234 21.8128C151.16 21.8568 151.122 22.0479 151.122 22.3858V26.265C151.122 26.7499 151.175 27.0952 151.279 27.3009C151.383 27.492 151.487 27.5875 151.592 27.5875H148.15ZM162.745 27.5875C162.849 27.5875 162.946 27.4846 163.035 27.2789C163.14 27.0732 163.192 26.7352 163.192 26.265V13.7017C163.192 13.2315 163.14 12.9009 163.035 12.7099C162.946 12.5042 162.849 12.394 162.745 12.3793C163.4 12.3793 163.966 12.3352 164.443 12.247C164.935 12.1442 165.277 12.0413 165.471 11.9385V26.265C165.471 26.7352 165.516 27.0732 165.605 27.2789C165.709 27.4846 165.814 27.5875 165.918 27.5875H162.745ZM173.588 27.8079C172.098 27.8079 170.928 27.5728 170.079 27.1026C169.245 26.6324 168.656 25.9932 168.314 25.185C167.986 24.3768 167.822 23.4658 167.822 22.4519C167.822 21.4234 167.993 20.505 168.336 19.6968C168.694 18.8887 169.29 18.2495 170.124 17.7793C170.958 17.2944 172.113 17.0519 173.588 17.0519C175.063 17.0519 176.217 17.2944 177.051 17.7793C177.886 18.2495 178.474 18.8887 178.817 19.6968C179.174 20.505 179.353 21.4234 179.353 22.4519C179.353 23.4658 179.182 24.3768 178.839 25.185C178.511 25.9932 177.93 26.6324 177.096 27.1026C176.262 27.5728 175.092 27.8079 173.588 27.8079ZM173.588 26.243C174.511 26.243 175.226 26.096 175.733 25.8022C176.24 25.5083 176.59 25.0822 176.783 24.5238C176.977 23.9507 177.074 23.2601 177.074 22.4519C177.074 21.6438 176.97 20.9532 176.761 20.3801C176.567 19.807 176.217 19.3662 175.711 19.0577C175.219 18.7491 174.511 18.5948 173.588 18.5948C172.679 18.5948 171.971 18.7564 171.465 19.0797C170.958 19.3883 170.601 19.8364 170.392 20.4242C170.198 20.9973 170.102 21.6805 170.102 22.474C170.102 23.2528 170.198 23.9287 170.392 24.5017C170.586 25.0601 170.936 25.4936 171.442 25.8022C171.949 26.096 172.664 26.243 173.588 26.243ZM184.039 27.5875C184.143 27.5875 184.21 27.492 184.24 27.3009C184.284 27.0952 184.217 26.7499 184.039 26.265C183.964 26.074 183.823 25.736 183.614 25.2511C183.405 24.7662 183.16 24.2079 182.877 23.576C182.608 22.9295 182.325 22.283 182.027 21.6364C181.729 20.9752 181.454 20.3801 181.201 19.8511C180.947 19.3075 180.746 18.9034 180.597 18.6389C180.344 18.1687 180.113 17.8307 179.904 17.625C179.696 17.4046 179.547 17.287 179.457 17.2724H183.1C182.966 17.2724 182.877 17.3752 182.832 17.5809C182.787 17.7866 182.877 18.1393 183.1 18.6389C183.219 18.8887 183.383 19.2707 183.592 19.785C183.8 20.2846 184.031 20.865 184.284 21.5262C184.553 22.1728 184.821 22.834 185.089 23.5099C185.357 24.1858 185.603 24.8177 185.826 25.4054H185.849C186.072 24.803 186.311 24.1638 186.564 23.4879C186.817 22.7973 187.063 22.1213 187.301 21.4601C187.555 20.7989 187.778 20.2185 187.972 19.7189C188.165 19.2046 188.314 18.8299 188.419 18.5948C188.627 18.1246 188.709 17.7866 188.664 17.5809C188.62 17.3752 188.538 17.2724 188.419 17.2724H191.994C191.86 17.2724 191.771 17.3752 191.726 17.5809C191.681 17.7866 191.771 18.1393 191.994 18.6389C192.113 18.8887 192.27 19.2707 192.463 19.785C192.672 20.2846 192.895 20.865 193.134 21.5262C193.387 22.1728 193.64 22.834 193.894 23.5099C194.147 24.1858 194.378 24.8177 194.586 25.4054H194.609C194.862 24.803 195.13 24.1638 195.413 23.4879C195.696 22.7973 195.979 22.1213 196.262 21.4601C196.545 20.7989 196.791 20.2185 197 19.7189C197.223 19.2046 197.387 18.8299 197.492 18.5948C197.7 18.1246 197.782 17.7866 197.737 17.5809C197.693 17.3752 197.611 17.2724 197.492 17.2724H201C200.911 17.2724 200.769 17.3752 200.575 17.5809C200.397 17.7719 200.188 18.1026 199.95 18.5728C199.816 18.8226 199.622 19.2046 199.369 19.7189C199.115 20.2332 198.832 20.8136 198.519 21.4601C198.207 22.0919 197.901 22.7238 197.603 23.3556C197.305 23.9875 197.045 24.5679 196.821 25.0968C196.598 25.6111 196.449 26.0005 196.374 26.265C196.24 26.7499 196.188 27.0952 196.218 27.3009C196.248 27.492 196.3 27.5875 196.374 27.5875H192.799C192.903 27.5875 192.97 27.492 193 27.3009C193.044 27.0952 192.977 26.7499 192.799 26.265C192.754 26.1328 192.642 25.8315 192.463 25.3613C192.285 24.8911 192.069 24.3254 191.815 23.6642C191.562 22.9883 191.301 22.2903 191.033 21.5703C190.765 20.8503 190.504 20.1671 190.251 19.5205H190.184C189.946 20.1377 189.685 20.7989 189.402 21.5042C189.119 22.1948 188.851 22.8707 188.597 23.5319C188.344 24.1785 188.128 24.7515 187.949 25.2511C187.771 25.736 187.659 26.074 187.614 26.265C187.48 26.7499 187.428 27.0952 187.458 27.3009C187.487 27.492 187.54 27.5875 187.614 27.5875H184.039Z" fill="white"/>
<defs>
<clipPath id="clip0_615_3">
<rect width="51.2118" height="45" fill="white"/>
</clipPath>
</defs>
</svg>
