<svg width="224" height="30" viewBox="0 0 224 30" fill="none" xmlns="http://www.w3.org/2000/svg">
<path d="M17.5 3.21V24H12.82V7.17H5.08V24H0.4V3.21H17.5ZM36.0241 8.22C35.1241 11.26 34.1841 14.11 33.2041 16.77C32.2241 19.43 31.1541 22.01 29.9941 24.51C29.5741 25.41 29.1541 26.17 28.7341 26.79C28.3141 27.43 27.8541 27.95 27.3541 28.35C26.8541 28.77 26.2841 29.07 25.6441 29.25C25.0241 29.45 24.2941 29.55 23.4541 29.55C22.7541 29.55 22.1041 29.48 21.5041 29.34C20.9241 29.22 20.4441 29.08 20.0641 28.92L20.8441 25.35C21.3041 25.51 21.7141 25.62 22.0741 25.68C22.4341 25.74 22.8141 25.77 23.2141 25.77C24.0141 25.77 24.6241 25.55 25.0441 25.11C25.4841 24.69 25.8541 24.1 26.1541 23.34C25.1341 21.34 24.1141 19.1 23.0941 16.62C22.0741 14.12 21.1141 11.32 20.2141 8.22H24.9541C25.1541 9 25.3841 9.85 25.6441 10.77C25.9241 11.67 26.2141 12.59 26.5141 13.53C26.8141 14.45 27.1141 15.35 27.4141 16.23C27.7341 17.11 28.0341 17.91 28.3141 18.63C28.5741 17.91 28.8441 17.11 29.1241 16.23C29.4041 15.35 29.6741 14.45 29.9341 13.53C30.2141 12.59 30.4741 11.67 30.7141 10.77C30.9741 9.85 31.2041 9 31.4041 8.22H36.0241ZM45.718 12.09C44.518 12.19 43.568 12.56 42.868 13.2C42.188 13.84 41.848 14.85 41.848 16.23C41.848 17.55 42.178 18.52 42.838 19.14C43.498 19.76 44.458 20.14 45.718 20.28V12.09ZM50.068 20.28C50.528 20.28 50.988 20.21 51.448 20.07C51.908 19.93 52.318 19.71 52.678 19.41C53.058 19.09 53.358 18.67 53.578 18.15C53.818 17.63 53.938 16.98 53.938 16.2C53.938 15.42 53.818 14.77 53.578 14.25C53.358 13.73 53.058 13.32 52.678 13.02C52.318 12.7 51.908 12.47 51.448 12.33C50.988 12.19 50.528 12.11 50.068 12.09V20.28ZM50.068 29.55H45.718V24.06C44.338 23.96 43.118 23.69 42.058 23.25C41.018 22.81 40.148 22.24 39.448 21.54C38.748 20.84 38.218 20.03 37.858 19.11C37.518 18.19 37.348 17.21 37.348 16.17C37.348 15.17 37.508 14.23 37.828 13.35C38.168 12.47 38.678 11.69 39.358 11.01C40.038 10.31 40.908 9.74 41.968 9.3C43.028 8.84 44.278 8.53 45.718 8.37V1.47L50.068 0.719999V8.37C51.188 8.47 52.258 8.7 53.278 9.06C54.298 9.42 55.188 9.92 55.948 10.56C56.728 11.2 57.338 11.99 57.778 12.93C58.238 13.85 58.468 14.94 58.468 16.2C58.468 17.48 58.238 18.59 57.778 19.53C57.338 20.47 56.738 21.26 55.978 21.9C55.218 22.54 54.328 23.04 53.308 23.4C52.288 23.74 51.208 23.96 50.068 24.06V29.55ZM76.2864 8.22V24H71.7864C71.7864 23 71.7964 22.01 71.8164 21.03C71.8364 20.03 71.8564 19.11 71.8764 18.27C71.8964 17.43 71.9164 16.7 71.9364 16.08C71.9764 15.44 71.9964 14.97 71.9964 14.67C71.4164 15.49 70.8364 16.32 70.2564 17.16C69.6764 18 69.1164 18.83 68.5764 19.65C68.0564 20.45 67.5564 21.22 67.0764 21.96C66.6164 22.7 66.2064 23.38 65.8464 24H61.9164V8.22H66.3864C66.3864 9.22 66.3764 10.18 66.3564 11.1C66.3564 12 66.3464 12.82 66.3264 13.56C66.3064 14.3 66.2864 14.95 66.2664 15.51C66.2464 16.05 66.2364 16.47 66.2364 16.77C67.4364 15.01 68.5364 13.43 69.5364 12.03C70.5564 10.63 71.5464 9.36 72.5064 8.22H76.2864ZM84.9606 13.74C85.4006 13.32 85.8606 12.86 86.3406 12.36C86.8406 11.86 87.3206 11.37 87.7806 10.89C88.2406 10.39 88.6806 9.91 89.1006 9.45C89.5206 8.99 89.8906 8.58 90.2106 8.22H95.6406C95.2406 8.64 94.7406 9.16 94.1406 9.78C93.5606 10.4 92.9406 11.05 92.2806 11.73C91.6206 12.39 90.9506 13.05 90.2706 13.71C89.6106 14.37 88.9806 14.96 88.3806 15.48C88.9806 15.94 89.6206 16.51 90.3006 17.19C90.9806 17.87 91.6406 18.6 92.2806 19.38C92.9406 20.16 93.5606 20.95 94.1406 21.75C94.7406 22.55 95.2506 23.3 95.6706 24H90.5706C90.2106 23.46 89.8006 22.9 89.3406 22.32C88.8806 21.72 88.4006 21.14 87.9006 20.58C87.4006 20 86.8906 19.46 86.3706 18.96C85.8706 18.46 85.4006 18.03 84.9606 17.67V24H80.4906V8.22H84.9606V13.74Z" fill="#FB3333"/>
<path d="M109.746 13.74C110.186 13.32 110.646 12.86 111.126 12.36C111.626 11.86 112.106 11.37 112.566 10.89C113.026 10.39 113.466 9.91 113.886 9.45C114.306 8.99 114.676 8.58 114.996 8.22H120.426C120.026 8.64 119.526 9.16 118.926 9.78C118.346 10.4 117.726 11.05 117.066 11.73C116.406 12.39 115.736 13.05 115.056 13.71C114.396 14.37 113.766 14.96 113.166 15.48C113.766 15.94 114.406 16.51 115.086 17.19C115.766 17.87 116.426 18.6 117.066 19.38C117.726 20.16 118.346 20.95 118.926 21.75C119.526 22.55 120.036 23.3 120.456 24H115.356C114.996 23.46 114.586 22.9 114.126 22.32C113.666 21.72 113.186 21.14 112.686 20.58C112.186 20 111.676 19.46 111.156 18.96C110.656 18.46 110.186 18.03 109.746 17.67V24H105.276V8.22H109.746V13.74ZM132.964 16.23C132.964 14.85 132.654 13.75 132.034 12.93C131.414 12.09 130.494 11.67 129.274 11.67C128.874 11.67 128.504 11.69 128.164 11.73C127.824 11.75 127.544 11.78 127.324 11.82V19.89C127.604 20.07 127.964 20.22 128.404 20.34C128.864 20.46 129.324 20.52 129.784 20.52C131.904 20.52 132.964 19.09 132.964 16.23ZM137.524 16.11C137.524 17.33 137.374 18.44 137.074 19.44C136.774 20.44 136.334 21.3 135.754 22.02C135.174 22.74 134.454 23.3 133.594 23.7C132.734 24.1 131.744 24.3 130.624 24.3C130.004 24.3 129.424 24.24 128.884 24.12C128.344 24 127.824 23.83 127.324 23.61V29.55H122.854V8.76C123.254 8.64 123.714 8.53 124.234 8.43C124.754 8.31 125.294 8.21 125.854 8.13C126.434 8.05 127.014 7.99 127.594 7.95C128.194 7.89 128.764 7.86 129.304 7.86C130.604 7.86 131.764 8.06 132.784 8.46C133.804 8.84 134.664 9.39 135.364 10.11C136.064 10.81 136.594 11.67 136.954 12.69C137.334 13.71 137.524 14.85 137.524 16.11ZM155.719 16.08C155.719 17.32 155.539 18.46 155.179 19.5C154.819 20.52 154.299 21.4 153.619 22.14C152.939 22.86 152.119 23.42 151.159 23.82C150.219 24.22 149.159 24.42 147.979 24.42C146.819 24.42 145.759 24.22 144.799 23.82C143.859 23.42 143.049 22.86 142.369 22.14C141.689 21.4 141.159 20.52 140.779 19.5C140.399 18.46 140.209 17.32 140.209 16.08C140.209 14.84 140.399 13.71 140.779 12.69C141.179 11.67 141.719 10.8 142.399 10.08C143.099 9.36 143.919 8.8 144.859 8.4C145.819 8 146.859 7.8 147.979 7.8C149.119 7.8 150.159 8 151.099 8.4C152.059 8.8 152.879 9.36 153.559 10.08C154.239 10.8 154.769 11.67 155.149 12.69C155.529 13.71 155.719 14.84 155.719 16.08ZM151.159 16.08C151.159 14.7 150.879 13.62 150.319 12.84C149.779 12.04 148.999 11.64 147.979 11.64C146.959 11.64 146.169 12.04 145.609 12.84C145.049 13.62 144.769 14.7 144.769 16.08C144.769 17.46 145.049 18.56 145.609 19.38C146.169 20.18 146.959 20.58 147.979 20.58C148.999 20.58 149.779 20.18 150.319 19.38C150.879 18.56 151.159 17.46 151.159 16.08ZM163.652 20.7C163.932 20.74 164.302 20.78 164.762 20.82C165.242 20.84 165.682 20.85 166.082 20.85C167.082 20.85 167.862 20.73 168.422 20.49C168.982 20.23 169.262 19.77 169.262 19.11C169.262 18.47 169.002 18.03 168.482 17.79C167.982 17.53 167.242 17.4 166.262 17.4H163.652V20.7ZM166.172 14.4C166.912 14.4 167.512 14.31 167.972 14.13C168.432 13.93 168.662 13.51 168.662 12.87C168.662 12.27 168.402 11.86 167.882 11.64C167.362 11.42 166.682 11.31 165.842 11.31C165.562 11.31 165.192 11.33 164.732 11.37C164.292 11.39 163.932 11.42 163.652 11.46V14.4H166.172ZM166.022 24.3C165.462 24.3 164.862 24.28 164.222 24.24C163.582 24.2 162.952 24.14 162.332 24.06C161.712 24 161.122 23.93 160.562 23.85C160.022 23.75 159.562 23.66 159.182 23.58V8.46C159.562 8.38 160.022 8.31 160.562 8.25C161.122 8.17 161.712 8.1 162.332 8.04C162.952 7.98 163.582 7.94 164.222 7.92C164.862 7.88 165.462 7.86 166.022 7.86C167.322 7.86 168.412 7.99 169.292 8.25C170.192 8.51 170.912 8.85 171.452 9.27C172.012 9.69 172.412 10.16 172.652 10.68C172.892 11.2 173.012 11.72 173.012 12.24C173.012 12.94 172.842 13.58 172.502 14.16C172.162 14.74 171.732 15.16 171.212 15.42C171.492 15.54 171.772 15.71 172.052 15.93C172.352 16.15 172.622 16.42 172.862 16.74C173.102 17.04 173.292 17.41 173.432 17.85C173.592 18.27 173.672 18.76 173.672 19.32C173.672 19.96 173.542 20.58 173.282 21.18C173.042 21.78 172.622 22.31 172.022 22.77C171.422 23.23 170.632 23.6 169.652 23.88C168.672 24.16 167.462 24.3 166.022 24.3ZM183.142 20.88C183.582 20.88 184.002 20.87 184.402 20.85C184.802 20.83 185.122 20.8 185.362 20.76V17.37C185.182 17.33 184.912 17.29 184.552 17.25C184.192 17.21 183.862 17.19 183.562 17.19C183.142 17.19 182.742 17.22 182.362 17.28C182.002 17.32 181.682 17.41 181.402 17.55C181.122 17.69 180.902 17.88 180.742 18.12C180.582 18.36 180.502 18.66 180.502 19.02C180.502 19.72 180.732 20.21 181.192 20.49C181.672 20.75 182.322 20.88 183.142 20.88ZM182.782 7.8C184.102 7.8 185.202 7.95 186.082 8.25C186.962 8.55 187.662 8.98 188.182 9.54C188.722 10.1 189.102 10.78 189.322 11.58C189.542 12.38 189.652 13.27 189.652 14.25V23.55C189.012 23.69 188.122 23.85 186.982 24.03C185.842 24.23 184.462 24.33 182.842 24.33C181.822 24.33 180.892 24.24 180.052 24.06C179.232 23.88 178.522 23.59 177.922 23.19C177.322 22.77 176.862 22.23 176.542 21.57C176.222 20.91 176.062 20.1 176.062 19.14C176.062 18.22 176.242 17.44 176.602 16.8C176.982 16.16 177.482 15.65 178.102 15.27C178.722 14.89 179.432 14.62 180.232 14.46C181.032 14.28 181.862 14.19 182.722 14.19C183.302 14.19 183.812 14.22 184.252 14.28C184.712 14.32 185.082 14.38 185.362 14.46V14.04C185.362 13.28 185.132 12.67 184.672 12.21C184.212 11.75 183.412 11.52 182.272 11.52C181.512 11.52 180.762 11.58 180.022 11.7C179.282 11.8 178.642 11.95 178.102 12.15L177.532 8.55C177.792 8.47 178.112 8.39 178.492 8.31C178.892 8.21 179.322 8.13 179.782 8.07C180.242 7.99 180.722 7.93 181.222 7.89C181.742 7.83 182.262 7.8 182.782 7.8ZM206.744 11.88H201.704V24H197.234V11.88H192.194V8.22H206.744V11.88ZM216.145 20.88C216.965 20.88 217.605 20.73 218.065 20.43C218.545 20.11 218.785 19.6 218.785 18.9C218.785 18.54 218.705 18.24 218.545 18C218.385 17.74 218.165 17.54 217.885 17.4C217.605 17.24 217.275 17.13 216.895 17.07C216.535 17.01 216.145 16.98 215.725 16.98C215.425 16.98 215.095 17 214.735 17.04C214.375 17.08 214.105 17.12 213.925 17.16V20.76C214.165 20.8 214.485 20.83 214.885 20.85C215.285 20.87 215.705 20.88 216.145 20.88ZM213.925 13.83C214.205 13.75 214.565 13.69 215.005 13.65C215.465 13.59 215.985 13.56 216.565 13.56C217.505 13.56 218.375 13.67 219.175 13.89C219.995 14.11 220.705 14.45 221.305 14.91C221.905 15.35 222.375 15.92 222.715 16.62C223.055 17.3 223.225 18.1 223.225 19.02C223.225 19.94 223.065 20.74 222.745 21.42C222.425 22.08 221.965 22.63 221.365 23.07C220.765 23.49 220.045 23.8 219.205 24C218.385 24.22 217.465 24.33 216.445 24.33C215.125 24.33 213.915 24.26 212.815 24.12C211.715 24 210.595 23.8 209.455 23.52V8.22H213.925V13.83Z" fill="#FB6532"/>
</svg>
