<svg width="15" height="14" viewBox="0 0 15 14" fill="none" xmlns="http://www.w3.org/2000/svg">
<path d="M14.345 0.101492C13.6681 -0.262979 12.9131 0.43993 12.4705 0.856469C11.4553 1.84575 10.5962 2.99123 9.63287 4.03258C8.56549 5.17806 7.57621 6.32354 6.48279 7.44304C5.85798 8.06784 5.18111 8.74472 4.76457 9.52573C3.82735 8.61451 3.02031 7.62523 1.97896 6.81823C1.22398 6.24549 -0.0256333 5.82895 0.000400376 7.20873C0.0524678 9.0051 1.64052 10.9316 2.81204 12.1551C3.30668 12.6758 3.95752 13.2225 4.7125 13.2485C5.62368 13.3006 6.56089 12.2072 7.1076 11.6084C8.07089 10.5671 8.8519 9.39552 9.737 8.32818C10.8825 6.92236 12.054 5.54253 13.1735 4.11068C13.8764 3.22554 16.0892 1.03866 14.345 0.101492ZM1.14584 7.1046C1.11981 7.1046 1.09377 7.1046 1.04171 7.13059C0.937571 7.1046 0.85947 7.07852 0.755335 7.02645C0.833436 6.97439 0.963605 7.00042 1.14584 7.1046Z" fill="#76923C"/>
</svg>
