<svg width="13" height="13" viewBox="0 0 13 13" fill="none" xmlns="http://www.w3.org/2000/svg">
<g opacity="0.4">
<path d="M10.2742 8.05304C10.008 7.77593 9.687 7.62776 9.34678 7.62776C9.0093 7.62776 8.68554 7.77318 8.40842 8.0503L7.5414 8.91458C7.47006 8.87616 7.39873 8.8405 7.33013 8.80483C7.23136 8.75544 7.13807 8.7088 7.0585 8.65941C6.24636 8.14359 5.50829 7.47137 4.80041 6.6016C4.45744 6.16809 4.22696 5.80318 4.0596 5.43277C4.28458 5.22699 4.49311 5.01298 4.69614 4.8072C4.77297 4.73037 4.84979 4.65081 4.92662 4.57398C5.5028 3.9978 5.5028 3.2515 4.92662 2.67531L4.17758 1.92627C4.09252 1.84122 4.00472 1.75342 3.92241 1.66562C3.75778 1.49551 3.58493 1.31991 3.40659 1.15528C3.14044 0.891884 2.82217 0.751953 2.48743 0.751953C2.1527 0.751953 1.82894 0.891884 1.55456 1.15528C1.55182 1.15803 1.55182 1.15803 1.54907 1.16077L0.616203 2.10187C0.265004 2.45307 0.0647114 2.88109 0.0208116 3.37771C-0.0450382 4.17888 0.190923 4.92518 0.37201 5.41357C0.816496 6.61258 1.48048 7.72379 2.47097 8.91458C3.67273 10.3496 5.11868 11.4827 6.77041 12.2811C7.40147 12.5802 8.2438 12.9342 9.1849 12.9945C9.24252 12.9973 9.30288 13 9.35776 13C9.99156 13 10.5238 12.7723 10.9409 12.3196C10.9436 12.3141 10.9491 12.3113 10.9519 12.3058C11.0945 12.133 11.2592 11.9766 11.432 11.8092C11.55 11.6967 11.6707 11.5787 11.7887 11.4553C12.0603 11.1727 12.203 10.8434 12.203 10.5059C12.203 10.1657 12.0576 9.83922 11.7805 9.56484L10.2742 8.05304ZM11.2564 10.9422C11.2537 10.9422 11.2537 10.9449 11.2564 10.9422C11.1494 11.0574 11.0397 11.1617 10.9217 11.2769C10.7433 11.447 10.5623 11.6254 10.3921 11.8257C10.115 12.122 9.78852 12.2619 9.3605 12.2619C9.31934 12.2619 9.27544 12.2619 9.23429 12.2592C8.4194 12.2071 7.66213 11.8888 7.09417 11.6172C5.54121 10.8654 4.17758 9.79806 3.04441 8.4454C2.1088 7.31772 1.48322 6.2751 1.06892 5.15565C0.813752 4.47246 0.720465 3.94018 0.761621 3.43807C0.789059 3.11706 0.912527 2.85091 1.14026 2.62318L2.07587 1.68757C2.21032 1.56136 2.35299 1.49276 2.49292 1.49276C2.66578 1.49276 2.80571 1.59702 2.89351 1.68482C2.89625 1.68757 2.89899 1.69031 2.90174 1.69306C3.06911 1.84945 3.22824 2.01133 3.39561 2.18419C3.48067 2.27198 3.56847 2.35978 3.65627 2.45033L4.40531 3.19937C4.69614 3.4902 4.69614 3.75909 4.40531 4.04993C4.32574 4.1295 4.24891 4.20906 4.16934 4.28589C3.93887 4.52185 3.71937 4.74135 3.48067 4.95536C3.47518 4.96085 3.46969 4.96359 3.46695 4.96908C3.23099 5.20504 3.27489 5.43552 3.32427 5.59191C3.32702 5.60014 3.32976 5.60837 3.3325 5.6166C3.52731 6.08853 3.80168 6.53301 4.21873 7.06255L4.22148 7.0653C4.97875 7.99817 5.77718 8.72526 6.65792 9.28224C6.77041 9.35357 6.88565 9.41119 6.9954 9.46607C7.09417 9.51546 7.18746 9.5621 7.26703 9.61149C7.278 9.61697 7.28898 9.62521 7.29995 9.63069C7.39324 9.67734 7.48104 9.69929 7.57158 9.69929C7.79931 9.69929 7.94199 9.55661 7.98863 9.50997L8.92699 8.57161C9.02028 8.47832 9.16844 8.36583 9.34129 8.36583C9.5114 8.36583 9.65134 8.47283 9.73639 8.56612C9.73913 8.56887 9.73914 8.56887 9.74188 8.57161L11.2537 10.0834C11.5363 10.3633 11.5363 10.6514 11.2564 10.9422Z" fill="#828488"/>
<path d="M7.02559 3.09222C7.74446 3.21294 8.39747 3.55316 8.91878 4.07447C9.4401 4.59578 9.77758 5.24879 9.90105 5.96765C9.93123 6.14874 10.0876 6.27495 10.266 6.27495C10.2879 6.27495 10.3071 6.27221 10.3291 6.26947C10.5321 6.23654 10.6666 6.04448 10.6336 5.84144C10.4855 4.97168 10.0739 4.17874 9.44558 3.55042C8.81726 2.9221 8.02432 2.51054 7.15455 2.36238C6.95151 2.32946 6.76219 2.4639 6.72653 2.66419C6.69086 2.86449 6.82256 3.05929 7.02559 3.09222Z" fill="#828488"/>
<path d="M12.9851 5.73457C12.7409 4.30234 12.0659 2.99907 11.0288 1.96193C9.99167 0.9248 8.6884 0.24984 7.25616 0.00564702C7.05587 -0.0300216 6.86655 0.107165 6.83088 0.307458C6.79796 0.510495 6.9324 0.699813 7.13544 0.735482C8.41402 0.952237 9.58011 1.5586 10.5075 2.48324C11.4349 3.41063 12.0385 4.57672 12.2553 5.8553C12.2854 6.03639 12.4418 6.1626 12.6202 6.1626C12.6421 6.1626 12.6613 6.15985 12.6833 6.15711C12.8836 6.12693 13.0208 5.93487 12.9851 5.73457Z" fill="#828488"/>
</g>
</svg>
